<svg width="80" height="80" viewBox="0 0 80 80" fill="none" xmlns="http://www.w3.org/2000/svg">
<circle cx="40" cy="40" r="40" fill="#D9D9D9"/>
<mask id="mask0_118_10" style="mask-type:luminance" maskUnits="userSpaceOnUse" x="5" y="6" width="69" height="68">
<path d="M73.9999 40L39.9999 6L5.99988 40L39.9999 74L73.9999 40Z" fill="white"/>
</mask>
<g mask="url(#mask0_118_10)">
<path d="M23.7775 33.6465L23.7775 27.349L31.2041 27.349L31.2041 51.8873L23.7775 51.8873L23.7775 45.9373M23.7775 33.6465L17.0023 33.6465L17.0023 39.7267M23.7775 33.6465L23.7775 45.9373M23.7775 45.9373L17.0024 45.9373L17.0023 39.7267M17.0023 39.7267L12.4421 39.7268" stroke="#41A6F9" stroke-width="5"/>
<path d="M56.0901 33.6464L56.0901 27.349L48.6635 27.349L48.6634 39.6181M56.0901 33.6464L62.8653 33.6464L62.8653 39.7267M56.0901 33.6464L56.0901 45.9373M48.6634 39.6181L48.6635 51.8873L56.0901 51.8873L56.0901 45.9373M48.6634 39.6181L31.2043 39.618M62.8653 39.7267L62.8653 45.9373L56.0901 45.9373M62.8653 39.7267L67.4255 39.7267" stroke="#41A6F9" stroke-width="5"/>
</g>
<path d="M32.6334 24.5994H22.4109C21.8586 24.5994 21.4109 25.0471 21.4109 25.5994V29.9763C21.4109 30.5286 20.9632 30.9763 20.4109 30.9763H15.5026C14.9503 30.9763 14.5026 31.424 14.5026 31.9763V35.8218C14.5026 36.3741 14.0549 36.8218 13.5026 36.8218H13.377C12.8247 36.8218 12.377 37.2695 12.377 37.8218V41.6673C12.377 42.2196 12.8247 42.6673 13.377 42.6673H13.5026C14.0549 42.6673 14.5026 43.115 14.5026 43.6673V47.5128C14.5026 48.0651 14.9503 48.5128 15.5026 48.5128H20.4109C20.9632 48.5128 21.4109 48.9605 21.4109 49.5128V53.3583C21.4109 53.9106 21.8586 54.3583 22.4109 54.3583H32.6334C33.1856 54.3583 33.6334 53.9106 33.6334 53.3583V43.1359C33.6334 42.5836 34.0811 42.1359 34.6334 42.1359H44.8558C45.4081 42.1359 45.8558 42.5836 45.8558 43.1359V53.3583C45.8558 53.9106 46.3035 54.3583 46.8558 54.3583H57.6096C58.1619 54.3583 58.6096 53.9106 58.6096 53.3583V49.5128C58.6096 48.9605 59.0574 48.5128 59.6096 48.5128H64.518C65.0703 48.5128 65.518 48.0651 65.518 47.5128V42.933C65.518 42.4928 65.8749 42.1359 66.3151 42.1359C66.7553 42.1359 67.1122 41.779 67.1122 41.3388V37.6189C67.1122 37.1787 66.7553 36.8218 66.3151 36.8218C65.8749 36.8218 65.518 36.4649 65.518 36.0247V31.9763C65.518 31.424 65.0703 30.9763 64.518 30.9763H59.6096C59.0574 30.9763 58.6096 30.5286 58.6096 29.9763V25.5994C58.6096 25.0471 58.1619 24.5994 57.6096 24.5994H46.8558C46.3035 24.5994 45.8558 25.0471 45.8558 25.5994V35.759V35.8643C45.8558 36.3997 45.4362 36.8403 44.901 36.8552C41.6056 36.9469 36.6817 36.8771 34.6087 36.8405C34.0649 36.8309 33.6334 36.3871 33.6334 35.8433V25.5994C33.6334 25.0471 33.1856 24.5994 32.6334 24.5994Z" stroke="black" stroke-width="2"/>
<path d="M21.4109 36.2904H19.8167V43.1987H21.4109V36.2904Z" stroke="black" stroke-width="0.5"/>
<path d="M28.3192 29.9135H26.1936V49.0442H28.3192V29.9135Z" stroke="black" stroke-width="0.5"/>
<path d="M53.2955 29.9135H51.1698V49.0442H53.2955V29.9135Z" stroke="black" stroke-width="0.5"/>
<path d="M60.2038 36.2904H58.6096V43.1987H60.2038V36.2904Z" stroke="black" stroke-width="0.5"/>
</svg>
