<svg width="80" height="80" viewBox="0 0 80 80" fill="none" xmlns="http://www.w3.org/2000/svg">
<circle cx="40" cy="40" r="40" fill="#D9D9D9"/>
<path fill-rule="evenodd" clip-rule="evenodd" d="M61.5194 40.3923C61.5194 28.5039 51.8853 22.2366 39.9994 22.2366C28.1149 22.2366 18.4808 28.5039 18.4808 40.3923C18.4808 42.7724 18.8823 45.0546 19.5949 47.1946H19.5845C19.5845 47.1946 26.4808 68.9827 39.9994 61.9196C53.5193 68.9827 60.4156 47.1946 60.4156 47.1946H60.4053C61.1179 45.0546 61.5194 42.7724 61.5194 40.3923Z" fill="#E34361"/>
<path fill-rule="evenodd" clip-rule="evenodd" d="M61.5191 40.3923C61.5191 32.9142 57.7028 27.6635 51.9161 24.7944C55.4035 27.831 57.5487 32.1584 57.5487 37.744C57.5487 40.124 57.1472 42.4063 56.4346 44.5478H56.445C56.445 44.5478 51.0687 61.5075 40.5117 60.6347C40.0702 61.2556 39.5457 61.8351 38.9843 62.3908C39.3191 62.247 39.6554 62.0989 39.9991 61.9195C53.5191 68.9827 60.4154 47.1946 60.4154 47.1946H60.405C61.1176 45.0546 61.5191 42.7723 61.5191 40.3923Z" fill="#BC395B"/>
<path fill-rule="evenodd" clip-rule="evenodd" d="M40 35.39C34.7185 35.39 32.4711 32.6262 32.3778 32.5076C31.8697 31.8659 31.9778 30.9337 32.6208 30.4254C33.2608 29.9186 34.1941 30.0268 34.7008 30.6685C34.7467 30.7218 36.2385 32.4261 40 32.4261C43.7615 32.4261 45.2519 30.7218 45.3141 30.6492C45.8385 30.0327 46.7674 29.9408 47.3911 30.4521C48.0148 30.9663 48.123 31.8733 47.6222 32.5076C47.5289 32.6262 45.2815 35.39 40 35.39Z" fill="black"/>
<path fill-rule="evenodd" clip-rule="evenodd" d="M40 60.4376C40.2356 60.4376 40.4711 60.494 40.6859 60.6051C43.403 62.0263 45.9067 62.2294 48.3348 61.2246C54.8237 58.5466 58.4919 48.2632 58.9541 46.8968C58.9659 46.839 58.9807 46.7827 59 46.7264C59.6889 44.659 60.037 42.5264 60.037 40.3924C60.037 28.0845 49.243 23.7186 40 23.7186C30.757 23.7186 19.963 28.0845 19.963 40.3924C19.963 42.5264 20.3111 44.659 21 46.7264C21.0193 46.7827 21.0341 46.8405 21.0459 46.8968C21.5111 48.2676 25.1956 58.5585 31.6681 61.2275C34.0978 62.2249 36.597 62.0234 39.3141 60.6051C39.5289 60.494 39.7644 60.4376 40 60.4376ZM45.2681 64.8139C43.5422 64.8139 41.7822 64.4005 40 63.572C36.7452 65.0851 33.5659 65.22 30.5333 63.9648C22.3511 60.5873 18.3378 48.1698 18.1719 47.6422C18.1556 47.5918 18.1422 47.5414 18.1319 47.4896C17.3807 45.1718 17 42.7858 17 40.3924C17 28.6462 26.243 20.7546 40 20.7546C53.757 20.7546 63 28.6462 63 40.3924C63 42.7858 62.6193 45.1718 61.8681 47.4911C61.8578 47.5414 61.8444 47.5918 61.8281 47.6422C61.6622 48.1698 57.6489 60.5873 49.4667 63.9648C48.0948 64.5309 46.6933 64.8139 45.2681 64.8139Z" fill="black"/>
<path fill-rule="evenodd" clip-rule="evenodd" d="M39.9977 35.3887C39.3651 35.3887 38.7814 34.9827 38.5843 34.3454C38.454 33.9245 35.4895 23.9449 43.4569 16.4046C44.0495 15.8444 44.9873 15.8681 45.5518 16.4624C46.1132 17.0581 46.0866 17.9962 45.4925 18.5594C38.8881 24.8074 41.3103 33.1243 41.4169 33.474C41.654 34.255 41.214 35.0849 40.4332 35.3235C40.2881 35.3665 40.1414 35.3887 39.9977 35.3887Z" fill="black"/>
<path fill-rule="evenodd" clip-rule="evenodd" d="M23.9905 19.459C40.3194 14.3017 39.549 27.5536 39.549 27.5536C39.549 27.5536 29.146 35.7934 23.9905 19.459Z" fill="#3BB777"/>
<path fill-rule="evenodd" clip-rule="evenodd" d="M23.9905 19.459L39.549 27.5536C39.549 27.5536 29.146 35.7934 23.9905 19.459Z" fill="#229857"/>
<path fill-rule="evenodd" clip-rule="evenodd" d="M25.8942 20.4487C27.4364 24.622 29.469 27.1236 31.949 27.8942C34.4794 28.6856 36.9638 27.4466 38.0557 26.7768C37.9772 25.4993 37.5594 22.7532 35.4646 21.1334C33.4083 19.5447 30.195 19.315 25.8942 20.4487ZM33.6601 31.1145C32.8379 31.1145 31.9772 31.0034 31.1001 30.7337C27.3505 29.5836 24.4824 25.9409 22.5787 19.9048C22.4601 19.5299 22.4957 19.1223 22.6764 18.7756C22.8587 18.4273 23.1698 18.1635 23.5446 18.0449C29.5787 16.1421 34.2068 16.397 37.3001 18.8067C41.312 21.9307 41.0409 27.4066 41.0275 27.6408C41.0038 28.0617 40.7994 28.4514 40.4675 28.7152C40.3194 28.8323 37.3875 31.1145 33.6601 31.1145Z" fill="black"/>
</svg>
