<svg width="80" height="80" viewBox="0 0 80 80" fill="none" xmlns="http://www.w3.org/2000/svg">
<circle cx="40" cy="40" r="40" fill="#D9D9D9"/>
<path opacity="0.5" d="M67.7891 39.725C67.7891 34.7328 61.1328 29.2969 50.8711 25.4696C47.3211 24.1383 42.3289 29.4633 38.3906 29.4633C34.6187 29.4633 29.8484 24.0828 26.5203 25.3032C16.1477 29.0196 9.54688 34.7328 9.54688 39.725C9.54688 48.6555 23.0813 60.5258 38.3906 60.5258C53.7 60.5258 67.7891 48.6555 67.7891 39.725Z" fill="#F2F2F4"/>
<path opacity="0.1" d="M26.5203 25.3032C16.1477 29.0196 9.54688 34.7329 9.54688 39.7251C9.54688 42.9977 11.3773 46.7141 14.4836 50.0422C14.7609 50.0422 15.0938 50.0422 15.3711 50.0422C20.3633 50.0422 24.9117 48.6001 28.5172 46.2704C29.793 45.4383 29.7375 43.8852 29.6266 42.3321C29.6266 42.3321 29.6266 42.3321 29.6266 42.2766C29.6266 42.2766 29.682 42.2211 29.7375 42.2211C33.1211 41.0563 35.7836 38.3383 36.2828 34.7883C36.3938 34.1227 36.4492 33.4016 36.4492 32.6805C36.4492 31.3493 36.2828 30.018 35.8945 28.7977C32.6773 27.5219 29.1828 24.3602 26.5203 25.3032Z" fill="white"/>
<path d="M38.5571 43.1641C43.9487 43.1641 48.3196 42.1707 48.3196 40.9453C48.3196 39.7199 43.9487 38.7266 38.5571 38.7266C33.1654 38.7266 28.7946 39.7199 28.7946 40.9453C28.7946 42.1707 33.1654 43.1641 38.5571 43.1641Z" fill="white"/>
<path d="M67.7891 39.725C67.7891 34.7328 61.1328 29.2969 50.8711 25.4696C47.3211 24.1383 42.3289 29.4633 38.3906 29.4633C34.6187 29.4633 29.8484 24.0828 26.5203 25.3032C16.1477 29.0196 9.54688 34.7328 9.54688 39.725C9.54688 48.6555 23.0813 60.5258 38.3906 60.5258C53.7 60.5258 67.7891 48.6555 67.7891 39.725Z" fill="#FF5576"/>
<path d="M63.1851 32.1813C61.7984 31.8485 60.1898 31.793 59.3578 31.9594C57.4164 32.2922 56.0851 33.7899 55.7523 35.5649C55.364 37.6172 53.7 39.2258 51.7031 39.836C47.2656 41.1672 40.8867 43.0531 39.1117 43.0531C35.2844 43.0531 25.5219 39.7805 25.5219 41.1672C25.5219 42.5539 31.6234 46.4922 39.1117 46.4922C40.7758 46.4922 45.0469 46.6031 49.3179 46.0485C51.8695 45.7156 53.4226 48.8219 51.5922 50.6524C49.5953 52.6492 47.1547 54.4797 44.4367 56.0328C42.6617 57.0313 43.3273 59.6383 45.1023 59.8047C57.5828 57.0313 67.789 47.3242 67.789 39.725C67.789 37.2289 66.125 34.6774 63.1851 32.1813Z" fill="#DB3E64"/>
<path d="M67.7891 39.725C67.7891 48.6554 53.7 60.5258 38.3906 60.5258C25.7992 60.5258 14.4836 52.5383 10.7672 44.7172" stroke="black" stroke-width="3" stroke-miterlimit="10" stroke-linecap="round" stroke-linejoin="round"/>
<path d="M65.4594 34.4C62.6859 31.1274 57.5273 27.9657 50.8711 25.4696C47.3211 24.1383 42.3289 29.4633 38.3906 29.4633C34.6187 29.4633 29.8484 24.0828 26.5203 25.3032C19.5312 27.7992 14.2617 31.2383 11.5437 34.7328C11.1 35.343 10.7117 35.8977 10.4344 36.5078C10.4344 36.5078 10.4344 36.5078 10.4344 36.5633C9.76874 37.95 10.8781 39.5032 12.4312 39.3367L67.8445 39.7805" stroke="black" stroke-width="3" stroke-miterlimit="10" stroke-linecap="round" stroke-linejoin="round"/>
<path d="M55.9187 47.0469C56.8377 47.0469 57.5828 46.3018 57.5828 45.3828C57.5828 44.4638 56.8377 43.7188 55.9187 43.7188C54.9997 43.7188 54.2546 44.4638 54.2546 45.3828C54.2546 46.3018 54.9997 47.0469 55.9187 47.0469Z" fill="#FF5576"/>
</svg>
