<svg width="80" height="80" viewBox="0 0 80 80" fill="none" xmlns="http://www.w3.org/2000/svg">
<circle cx="40" cy="40" r="40" fill="#D9D9D9"/>
<path d="M64.2447 34.4849C64.2467 31.6992 63.4292 28.9744 61.8937 26.65C60.3583 24.3256 58.173 22.5043 55.6099 21.4131C53.0468 20.3218 50.2193 20.0087 47.4796 20.5129C44.7399 21.017 42.209 22.3161 40.2023 24.2483C37.5147 21.6743 33.9238 20.2584 30.2027 20.3056C26.4815 20.3527 22.9277 21.8591 20.3061 24.5004C17.6846 27.1417 16.2049 30.7068 16.1857 34.4282C16.1665 38.1496 17.6093 41.7298 20.2035 44.398H20.1926L38.6363 63.3357C38.8395 63.5445 39.0825 63.7105 39.3509 63.8239C39.6193 63.9373 39.9077 63.9957 40.1991 63.9957C40.4904 63.9957 40.7789 63.9373 41.0473 63.8239C41.3157 63.7105 41.5587 63.5445 41.7618 63.3357L60.2143 44.398H60.2012C62.7951 41.7506 64.2469 38.1913 64.2447 34.4849Z" fill="#F2C4BB"/>
<path d="M39.6935 64C38.7001 64.0024 37.7455 63.6152 37.0346 62.9214C37.0073 62.8973 36.98 62.8711 36.9537 62.8438L18.5078 43.9115C18.4696 43.8722 18.4335 43.8318 18.3985 43.7891C15.6217 40.8894 14.0499 37.0432 14.0012 33.0286C13.9524 29.014 15.4303 25.1308 18.1359 22.1644C20.8415 19.1981 24.5727 17.3701 28.5749 17.0503C32.577 16.7306 36.5512 17.9428 39.6935 20.4419C42.8366 17.9492 46.8086 16.7423 50.8072 17.0648C54.8057 17.3872 58.533 19.2151 61.2361 22.1791C63.9392 25.1432 65.4168 29.0226 65.3704 33.0339C65.324 37.0452 63.7571 40.8894 60.9862 43.7902C60.9522 43.8328 60.9157 43.8733 60.8769 43.9115L42.4332 62.8438C42.407 62.8715 42.3797 62.8977 42.3512 62.9224C41.6407 63.616 40.6864 64.0029 39.6935 64ZM39.2432 60.4964C39.264 60.5149 39.2837 60.5346 39.3044 60.5554C39.3547 60.6079 39.4151 60.6496 39.482 60.6782C39.5488 60.7067 39.6208 60.7214 39.6935 60.7214C39.7662 60.7214 39.8381 60.7067 39.905 60.6782C39.9718 60.6496 40.0322 60.6079 40.0825 60.5554L40.1437 60.4953L58.4192 41.739C58.4519 41.6985 58.4858 41.6603 58.5219 41.6231C60.8174 39.2629 62.0942 36.0955 62.0774 32.8031C62.0606 29.5107 60.7515 26.3566 58.4321 24.0199C56.1127 21.6831 52.9684 20.3506 49.6762 20.3093C46.3841 20.268 43.2073 21.5212 40.83 23.799C40.5246 24.0929 40.1173 24.257 39.6935 24.257C39.2697 24.257 38.8623 24.0929 38.5569 23.799C36.1796 21.5212 33.0029 20.268 29.7107 20.3093C26.4185 20.3506 23.2742 21.6831 20.9548 24.0199C18.6354 26.3566 17.3264 29.5107 17.3096 32.8031C17.2928 36.0955 18.5696 39.2629 20.865 41.6231C20.9022 41.6603 20.9361 41.6996 20.9689 41.739L39.2432 60.4964Z" fill="#FF6565"/>
<path d="M44.0529 58.5258C44.0092 58.5258 43.9644 58.5258 43.9207 58.5203C43.5715 58.492 43.2406 58.3526 42.9765 58.1225C42.7124 57.8924 42.5289 57.5837 42.453 57.2417L39.6816 44.7725L36.9101 57.2417C36.8342 57.5837 36.6507 57.8923 36.3866 58.1224C36.1225 58.3524 35.7917 58.4919 35.4426 58.5202C35.0934 58.5486 34.7444 58.4643 34.4467 58.2799C34.1489 58.0955 33.918 57.8205 33.7879 57.4953L30.575 49.4608L27.9314 53.4245C27.7818 53.649 27.579 53.8331 27.341 53.9605C27.1031 54.0878 26.8374 54.1545 26.5676 54.1545H15.6392C15.2045 54.1545 14.7875 53.9818 14.4801 53.6744C14.1727 53.3669 14 52.95 14 52.5152C14 52.0805 14.1727 51.6635 14.4801 51.3561C14.7875 51.0487 15.2045 50.876 15.6392 50.876H25.6933L29.5783 45.049C29.744 44.8004 29.9745 44.6018 30.2448 44.4747C30.5151 44.3476 30.815 44.2967 31.1122 44.3276C31.4093 44.3586 31.6923 44.4701 31.9307 44.6502C32.169 44.8303 32.3536 45.0721 32.4645 45.3495L34.8687 51.3503L38.0893 36.8604C38.1705 36.4966 38.3732 36.1714 38.664 35.9383C38.9549 35.7051 39.3165 35.5781 39.6892 35.5781C40.0619 35.5781 40.4235 35.7051 40.7144 35.9383C41.0052 36.1714 41.208 36.4966 41.2891 36.8604L44.5097 51.3503L46.9139 45.3495C47.0248 45.0721 47.2094 44.8303 47.4478 44.6502C47.6861 44.4701 47.9691 44.3586 48.2663 44.3276C48.5634 44.2967 48.8633 44.3476 49.1337 44.4747C49.404 44.6018 49.6344 44.8004 49.8001 45.049L53.6698 50.876H63.7239C64.1586 50.876 64.5756 51.0487 64.883 51.3561C65.1904 51.6635 65.3631 52.0805 65.3631 52.5152C65.3631 52.95 65.1904 53.3669 64.883 53.6744C64.5756 53.9818 64.1586 54.1545 63.7239 54.1545H52.7956C52.5257 54.1545 52.26 54.0878 52.0221 53.9605C51.7842 53.8331 51.5814 53.649 51.4317 53.4245L48.7881 49.4608L45.5752 57.4953C45.4535 57.7995 45.2435 58.0603 44.9721 58.244C44.7008 58.4277 44.3806 58.5259 44.0529 58.5258Z" fill="#647AFF"/>
</svg>
