<svg width="35" height="35" viewBox="0 0 35 35" fill="none" xmlns="http://www.w3.org/2000/svg">
<path d="M6.34878 16.2745C6.34878 16.2745 16.0789 12.1037 19.4534 10.635C20.747 10.0476 25.134 8.16772 25.134 8.16772C25.134 8.16772 27.1588 7.34534 26.99 9.34263C26.9337 10.1651 26.4838 13.0436 26.0339 16.1571C25.3589 20.563 24.6278 25.38 24.6278 25.38C24.6278 25.38 24.5153 26.7312 23.5592 26.9662C22.6031 27.2011 21.0282 26.1438 20.747 25.9087C20.522 25.7325 16.5288 23.089 15.0665 21.7966C14.6727 21.4441 14.2228 20.7392 15.1227 19.9168C17.1475 17.9782 19.5659 15.5696 21.0282 14.0423C21.7032 13.3373 22.378 11.6925 19.5659 13.6898C15.5727 16.5683 11.6356 19.2706 11.6356 19.2706C11.6356 19.2706 10.7357 19.858 9.04845 19.3293C7.3611 18.8006 5.39259 18.0957 5.39259 18.0957C5.39259 18.0957 4.04283 17.2145 6.34878 16.2745Z" fill="white"/>
<circle cx="17.5" cy="17.5" r="16" stroke="white" stroke-width="3"/>
</svg>
